<svg width="58" height="55" viewBox="0 0 58 55" fill="none" xmlns="http://www.w3.org/2000/svg">
<path d="M39.0755 36.6509L19.0216 36.6699C14.6098 36.6739 10.997 33.0682 10.992 28.6564L10.973 8.60247C10.969 4.19061 14.5747 0.577901 18.9865 0.572888L39.0404 0.553836C43.4523 0.549826 47.065 4.15552 47.07 8.56738L47.0891 28.6213C47.0941 33.0342 43.4874 36.6469 39.0755 36.6509Z" fill="url(#paint0_radial_146_236)"/>
<path d="M39.0755 36.6509L19.0216 36.6699C14.6098 36.6739 10.997 33.0682 10.992 28.6564L10.973 8.60247C10.969 4.19061 14.5747 0.577901 18.9865 0.572888L39.0404 0.553836C43.4523 0.549826 47.065 4.15552 47.07 8.56738L47.0891 28.6213C47.0941 33.0342 43.4874 36.6469 39.0755 36.6509Z" fill="url(#paint1_radial_146_236)"/>
<path d="M29.0315 25.6312C25.1621 25.6312 22.0126 22.4828 22.0126 18.6124C22.0126 14.742 25.1621 11.5935 29.0315 11.5935C32.9009 11.5935 36.0503 14.742 36.0503 18.6124C36.0503 22.4828 32.9009 25.6312 29.0315 25.6312ZM29.0315 13.5989C26.267 13.5989 24.018 15.8479 24.018 18.6124C24.018 21.3768 26.267 23.6259 29.0315 23.6259C31.7959 23.6259 34.0449 21.3768 34.0449 18.6124C34.0449 15.8479 31.7959 13.5989 29.0315 13.5989Z" fill="white"/>
<path d="M36.5517 12.5963C37.3824 12.5963 38.0558 11.923 38.0558 11.0923C38.0558 10.2616 37.3824 9.58826 36.5517 9.58826C35.7211 9.58826 35.0477 10.2616 35.0477 11.0923C35.0477 11.923 35.7211 12.5963 36.5517 12.5963Z" fill="white"/>
<path d="M35.0477 31.6475H23.0153C19.1459 31.6475 15.9964 28.499 15.9964 24.6286V12.5963C15.9964 8.72586 19.1459 5.57739 23.0153 5.57739H35.0477C38.9171 5.57739 42.0665 8.72586 42.0665 12.5963V24.6286C42.0665 28.499 38.9171 31.6475 35.0477 31.6475ZM23.0153 7.58278C20.2509 7.58278 18.0018 9.83183 18.0018 12.5963V24.6286C18.0018 27.393 20.2509 29.6421 23.0153 29.6421H35.0477C37.8121 29.6421 40.0611 27.393 40.0611 24.6286V12.5963C40.0611 9.83183 37.8121 7.58278 35.0477 7.58278H23.0153Z" fill="white"/>
<path d="M2.95272 38.2388C2.57634 38.3748 1.99137 38.7829 1.55604 39.2183C0.912109 39.8622 0.413294 40.6966 0.118539 41.6307C0.0187759 41.9482 0.000637105 42.0933 0.000637105 42.5513C-0.00389758 43.0138 0.0142412 43.1362 0.104935 43.3675C0.381551 44.0749 0.966526 44.6463 1.56964 44.8005C1.73742 44.8413 1.79637 44.8413 1.85079 44.7959C1.95962 44.7052 1.93241 44.5601 1.71928 44.1883C1.19779 43.2768 1.225 41.9935 1.79184 40.6376C2.02311 40.0708 2.68517 39.1729 2.86203 39.1729C2.93005 39.1729 2.93912 47.0678 2.87109 48.2876C2.82575 49.1719 2.7804 49.4531 2.61715 50.0018C2.47204 50.4915 2.48111 50.6185 2.6761 50.6366C3.03434 50.6729 3.70548 50.1197 4.01384 49.5347C4.24057 49.0994 4.39928 48.5234 4.46277 47.9113C4.49905 47.5712 4.51719 45.9795 4.52172 43.0637L4.52626 38.7285L4.41289 38.6061C4.1 38.2705 3.37445 38.0891 2.95272 38.2388Z" fill="black"/>
<path d="M18.9239 38.2569C18.8332 38.3295 18.8151 38.402 18.7833 38.792C18.7652 39.0369 18.747 39.5266 18.7425 39.8713V40.5016L17.9308 40.4698L17.1191 40.4381L17.0239 40.5605C16.906 40.7102 16.8243 40.9868 16.8198 41.2725C16.8153 41.599 16.8651 41.6216 17.5816 41.6216C17.9081 41.6216 18.28 41.6353 18.4024 41.6489L18.6291 41.6761L18.6155 43.5217L18.5974 45.3628L18.4659 45.7709C18.3072 46.2516 18.0079 46.7685 17.6723 47.1358L17.432 47.4034L17.4274 47.0134C17.4229 46.1337 17.1418 45.7346 15.8176 44.7415C15.4186 44.4377 15.0739 44.1792 15.0558 44.1611C15.0331 44.1429 15.1102 43.9978 15.2281 43.8391C15.5728 43.372 15.7677 42.9231 15.7859 42.5467C15.804 42.2565 15.795 42.2157 15.6816 42.0842C15.4594 41.8212 14.8699 41.7758 14.4209 41.9844C13.7589 42.2973 13.3145 43.1045 13.4369 43.762C13.4823 43.9842 13.6591 44.3515 13.7543 44.4105C13.7816 44.4241 13.7997 44.4694 13.7997 44.5102C13.7997 44.6735 12.462 46.9953 12.0901 47.485C11.9767 47.6301 11.8135 47.7843 11.7319 47.8251C11.5822 47.8931 11.5686 47.8931 11.487 47.807C11.4371 47.7616 11.3782 47.612 11.351 47.4759C11.292 47.1676 11.292 45.3083 11.351 44.0069C11.3827 43.3403 11.3827 42.9548 11.351 42.8415C11.292 42.6238 11.0063 42.3699 10.5937 42.1613C10.3307 42.0298 10.24 42.0071 9.96788 42.0071C9.5915 42.0116 9.3693 42.1114 9.03374 42.4198C8.54852 42.8778 8.11319 43.6759 7.65519 44.9546C7.51008 45.3537 7.37404 45.6983 7.35137 45.7255C7.32869 45.7527 7.32416 45.068 7.3423 44.0885C7.37404 42.4334 7.37404 42.4061 7.28335 42.3155C7.05208 42.0842 6.13607 41.8892 6.00456 42.0479C5.95468 42.1069 5.94108 42.719 5.92294 45.1904C5.89573 48.3693 5.90934 48.6187 6.07712 48.9633C6.22223 49.2445 6.35827 49.3079 6.83895 49.3079C7.16091 49.3079 7.28335 49.2898 7.33323 49.2399C7.37404 49.1991 7.42846 48.9769 7.46927 48.7139C7.65066 47.4986 8.17215 45.8434 8.71631 44.7597C9.10176 43.9888 9.74568 43.1136 9.82731 43.2496C9.84544 43.2723 9.82277 44.0477 9.78196 44.9637C9.6822 47.2537 9.73661 48.1788 10.0178 48.7729C10.376 49.5256 11.1832 49.4984 12.004 48.7048C12.4166 48.3012 12.7386 47.8387 13.5775 46.4375C14.0083 45.721 14.3665 45.127 14.3711 45.1179C14.4028 45.0816 14.6159 45.263 15.1148 45.7527C15.7904 46.4193 15.9537 46.7141 15.9537 47.2628C15.9537 47.5712 15.9355 47.6619 15.8403 47.8296C15.6952 48.0881 15.4821 48.2151 15.2054 48.2105C14.9651 48.206 14.8019 48.1335 14.4028 47.8523C13.9947 47.5621 13.8995 47.553 13.65 47.7843C13.4097 48.0065 13.2465 48.3557 13.2646 48.596C13.3009 49.0359 14.303 49.3669 15.4322 49.317C16.262 49.2807 16.8107 49.0495 17.432 48.4736C17.7811 48.1516 18.2482 47.4941 18.4886 46.9726L18.6427 46.6325L18.6745 46.8139C18.9103 48.2423 19.2413 48.8726 19.9215 49.19C20.2571 49.3442 20.7604 49.3533 21.0325 49.2082C21.4724 48.9769 21.9122 48.4554 22.2206 47.8115L22.3884 47.4578L22.4655 47.6891C22.6015 48.0881 22.8691 48.5507 23.1094 48.791C23.9982 49.6934 25.4674 49.4032 26.2792 48.1697L26.4696 47.8795L26.5286 48.1063C26.6193 48.4554 26.7417 48.664 27.0183 48.9134C27.6305 49.4757 28.4921 49.444 29.0725 48.8363C29.1904 48.7139 29.3401 48.5098 29.4036 48.3829L29.5215 48.1561L29.7391 48.4736C30.0792 48.9724 30.5282 49.2581 31.0587 49.3125C31.7525 49.385 32.5778 48.986 33.0313 48.3647L33.1537 48.1924L33.1719 48.5234C33.1809 48.7048 33.1809 48.8726 33.1719 48.8998C33.1628 48.9225 32.859 49.2082 32.5007 49.5347C31.6029 50.3419 30.773 51.1989 30.5145 51.5934C30.2062 52.0514 30.0792 52.4323 30.0792 52.8994C30.0792 53.3846 30.1926 53.693 30.4873 54.0149C31.1403 54.7269 32.3964 54.8448 33.2308 54.2734C33.9246 53.7973 34.2693 53.1624 34.4869 51.9607C34.5731 51.4937 34.5822 51.2851 34.5776 50.0199L34.5686 48.6005L34.8542 48.2514C35.7884 47.0996 36.6999 45.5169 37.176 44.2246L37.3438 43.7666L37.7564 43.7348C37.9786 43.7212 38.2462 43.7076 38.346 43.7076C38.5545 43.7076 38.5545 43.6033 38.355 44.6826C38.2507 45.2585 38.2281 45.4943 38.2235 46.2244C38.219 47.2038 38.2779 47.5757 38.5364 48.138C38.9672 49.0721 39.9331 49.5392 40.7267 49.1946C40.9761 49.0857 41.3751 48.7048 41.5112 48.4464C41.5701 48.333 41.6291 48.2423 41.6427 48.2423C41.6563 48.2423 41.7062 48.3148 41.7515 48.401C41.8921 48.6549 42.2685 49.0041 42.5677 49.1492C43.4475 49.58 44.5811 49.1674 45.2341 48.1697L45.4201 47.8841L45.5198 48.1743C45.6876 48.6731 45.9688 48.9951 46.4358 49.2082C46.7442 49.3488 47.2974 49.3442 47.574 49.2036C47.8371 49.0631 48.0819 48.8046 48.2678 48.46L48.422 48.1743L48.4492 48.5597C48.4855 49.0313 48.5037 49.0767 48.6896 49.1674C49.143 49.3805 49.9411 49.3805 50.0999 49.1674C50.1407 49.113 50.1679 48.8726 50.186 48.469C50.2586 46.8048 50.3583 46.1609 50.7166 45.1043C50.8934 44.5737 51.2471 43.8436 51.3242 43.8436C51.4059 43.8436 51.4376 44.0522 51.4376 44.5647C51.4376 44.805 51.4693 45.3582 51.5056 45.7936C51.7142 48.265 51.9273 48.7411 52.8161 48.7411C53.12 48.7411 53.1789 48.7275 53.2696 48.6368C53.3603 48.5416 53.3739 48.4781 53.4011 47.9702C53.4465 47.0678 53.7321 45.6621 54.045 44.8186C54.2038 44.3833 54.4396 43.83 54.4849 43.7756C54.503 43.753 54.5212 44.2744 54.5212 44.932C54.5212 46.2425 54.5711 46.9635 54.7026 47.5757C54.8749 48.3602 55.2331 48.8908 55.7818 49.1583C56.0403 49.2853 56.131 49.3079 56.4258 49.3079C56.716 49.3079 56.7976 49.2898 57.0107 49.1719C57.2828 49.0223 57.4914 48.7865 57.6637 48.4418C57.9177 47.943 58.0809 46.9771 57.9585 46.7458C57.8814 46.6053 57.6955 46.5735 57.5957 46.6869C57.5549 46.7322 57.4687 46.9726 57.4052 47.2175C57.1876 48.0428 57.0017 48.333 56.6842 48.333C56.5391 48.333 56.4756 48.3058 56.3532 48.1743C55.9587 47.7571 55.8317 46.5282 55.9224 44.1067C55.9814 42.6918 55.9723 42.6374 55.6911 42.4198C55.4825 42.261 54.9112 42.0298 54.6527 41.998C54.3081 41.9572 54.1403 42.066 53.9543 42.456C53.6369 43.1181 53.1336 44.7642 52.9567 45.6983C52.9204 45.9115 52.8796 46.0883 52.8706 46.0974C52.8252 46.1427 52.7073 44.3334 52.7073 43.5262C52.7073 42.7689 52.6665 42.6057 52.408 42.3608C52.1904 42.1477 51.755 41.9844 51.4149 41.9844C51.0068 41.9844 50.839 42.2656 50.2767 43.9117L49.9003 45V43.6985C49.8958 42.1069 49.9411 42.2157 49.202 42.0615C48.7576 41.9708 48.7032 41.9663 48.5898 42.0298C48.4674 42.1023 48.4674 42.1023 48.4402 42.7326C48.422 43.0818 48.4084 44.1067 48.4039 45.0045C48.3994 46.6143 48.3994 46.6506 48.286 47.0361C48.0819 47.748 47.701 48.3375 47.4017 48.401C47.2385 48.4373 46.9755 48.3285 46.8848 48.1879C46.6354 47.8024 46.5628 46.7232 46.6308 44.3198L46.6807 42.5059L46.5447 42.3835C46.3769 42.2338 45.996 42.1159 45.6377 42.1069C45.2886 42.0933 45.1797 42.184 45.1797 42.4696V42.6737L44.9167 42.4016C44.7625 42.2474 44.5358 42.0797 44.3816 42.0026C44.1413 41.8847 44.0687 41.8711 43.6833 41.8711C43.3069 41.8711 43.2162 41.8892 42.9849 41.998C42.6222 42.1658 42.3637 42.3835 42.1188 42.7326C41.6699 43.3584 41.3797 44.1883 41.2754 45.1451C41.2164 45.6757 41.2482 46.8683 41.3207 47.1766C41.3615 47.3218 41.3525 47.4124 41.2754 47.6392C41.0396 48.3511 40.5317 48.6232 40.1598 48.2287C39.8061 47.8614 39.7154 47.4578 39.72 46.3151C39.7245 45.3582 39.72 45.3809 40.0329 43.889C40.1236 43.4627 40.1508 43.2269 40.1281 43.109C40.0873 42.8778 39.8515 42.642 39.6021 42.5739C39.3844 42.515 39.3164 42.5195 38.1918 42.7281L37.6204 42.8324L37.6249 42.456C37.6295 42.1431 37.6159 42.0615 37.5342 41.9527C37.2395 41.5491 36.5411 41.5808 36.1557 42.0162C35.7385 42.4923 35.7385 43.2269 36.1602 43.6214L36.3008 43.753L36.1784 44.1701C35.929 45.0499 35.4075 46.1699 34.8633 46.9953L34.564 47.4487L34.5731 44.9773C34.5776 43.6169 34.5776 42.4787 34.5731 42.4515C34.564 42.3427 34.1242 42.1749 33.6526 42.0978C33.453 42.066 33.19 42.1613 33.122 42.2928C33.0948 42.3472 33.0721 42.4424 33.0721 42.5104C33.0721 42.6329 33.0676 42.6329 32.8726 42.4243C32.4917 42.0298 32.0926 41.8484 31.5938 41.8484C30.5599 41.8484 29.7028 42.8188 29.3265 44.4196C29.2312 44.8277 29.2086 45.0589 29.1859 45.8162C29.1723 46.3151 29.1814 46.8411 29.204 46.9816C29.272 47.3716 29.0952 47.8704 28.7732 48.206C28.5057 48.4872 28.2019 48.4826 27.9751 48.1879C27.6758 47.7888 27.5987 46.8547 27.6713 44.347L27.7257 42.5059L27.5897 42.3835C27.4219 42.2338 27.041 42.1159 26.6782 42.1069C26.3426 42.0978 26.2021 42.2021 26.2021 42.4787V42.6556L25.9753 42.4198C25.8529 42.2882 25.6579 42.1295 25.5445 42.066C24.9369 41.7169 24.1478 41.8076 23.5629 42.2837C23.3497 42.456 22.9734 42.9594 22.801 43.2995C22.529 43.83 22.3566 44.6236 22.2614 45.7482C22.207 46.3876 22.1798 46.5509 22.0574 46.8592C21.7399 47.6845 21.1504 48.2967 20.7922 48.1697C20.6425 48.1153 20.4838 47.8886 20.3977 47.5893C20.2435 47.0678 20.2208 46.4239 20.2798 44.2835C20.3115 43.1544 20.3523 42.1114 20.3659 41.9618L20.3977 41.6897L21.3953 41.667L22.3884 41.6443L22.4927 41.4947C22.6015 41.3269 22.6695 41.0049 22.6242 40.8326C22.6061 40.7601 22.5562 40.7147 22.4745 40.6966C22.3476 40.6694 20.9101 40.5787 20.5836 40.5787H20.4067L20.4249 39.5674L20.443 38.5607L20.2389 38.461C20.0213 38.3567 19.3275 38.1753 19.137 38.1753C19.0781 38.1753 18.9783 38.2116 18.9239 38.2569ZM25.5037 43.1181C25.735 43.236 25.93 43.5126 26.0479 43.8845C26.1295 44.1248 26.1522 44.3379 26.1658 44.9819C26.2111 46.4738 25.9527 47.5213 25.4085 48.0654C24.8008 48.6731 24.1977 48.3466 23.9302 47.2673C23.776 46.6415 23.8032 45.1224 23.9846 44.3878C24.2476 43.3267 24.8779 42.8007 25.5037 43.1181ZM32.4055 43.0909C32.6277 43.1816 32.8318 43.4446 32.9406 43.7847C33.0222 44.0386 33.0404 44.2382 33.0585 44.9138C33.0903 46.0838 32.9723 46.8456 32.6459 47.544C32.4599 47.9339 32.2695 48.1607 32.011 48.2831C31.68 48.4464 31.4442 48.3919 31.1811 48.0881C30.6551 47.4941 30.5508 45.4716 30.9771 44.1837C31.2628 43.3176 31.8568 42.8596 32.4055 43.0909ZM44.5811 43.1952C44.6718 43.2677 44.8033 43.4401 44.8668 43.567C45.0709 43.9706 45.1117 44.2744 45.1117 45.3401C45.1072 46.1881 45.0936 46.3649 45.0074 46.7141C44.8487 47.3535 44.6582 47.7616 44.3907 48.0337C43.5926 48.8545 42.8852 48.1335 42.7945 46.4103C42.7265 45.0952 42.9759 43.8709 43.4157 43.372C43.7422 43.0002 44.241 42.9231 44.5811 43.1952ZM33.2399 50.9495C33.1809 53.04 32.8408 53.888 32.0337 53.9469C31.7026 53.9696 31.4759 53.8744 31.3263 53.6431C31.0134 53.1624 31.231 52.3689 31.9203 51.4483C32.1878 51.0901 33.1809 50.0108 33.2444 50.0108C33.258 50.0108 33.2535 50.4325 33.2399 50.9495Z" fill="black"/>
<defs>
<radialGradient id="paint0_radial_146_236" cx="0" cy="0" r="1" gradientUnits="userSpaceOnUse" gradientTransform="translate(24.3991 36.696) scale(45.02)">
<stop stop-color="#FFDD55"/>
<stop offset="0.328" stop-color="#FF543F"/>
<stop offset="0.348" stop-color="#FC5245"/>
<stop offset="0.504" stop-color="#E64771"/>
<stop offset="0.643" stop-color="#D53E91"/>
<stop offset="0.761" stop-color="#CC39A4"/>
<stop offset="0.841" stop-color="#C837AB"/>
</radialGradient>
<radialGradient id="paint1_radial_146_236" cx="0" cy="0" r="1" gradientUnits="userSpaceOnUse" gradientTransform="translate(16.7846 0.102926) scale(29.8934 19.9179)">
<stop stop-color="#4168C9"/>
<stop offset="0.999" stop-color="#4168C9" stop-opacity="0"/>
</radialGradient>
</defs>
</svg>
