<svg width="51" height="51" viewBox="0 0 51 51" fill="none" xmlns="http://www.w3.org/2000/svg">
<path d="M0.70285 40.1911H2.6388V47.2373H6.22069V49.0243H0.70285V40.1911ZM7.07501 43.0401H8.93258V49.0204H7.07501V43.0401ZM8.0038 40.0657C8.21695 40.0657 8.42531 40.1289 8.60254 40.2473C8.77977 40.3657 8.9179 40.534 8.99947 40.731C9.08103 40.9279 9.10238 41.1446 9.06079 41.3536C9.01921 41.5627 8.91657 41.7547 8.76585 41.9054C8.61513 42.0561 8.4231 42.1588 8.21405 42.2004C8.00499 42.242 7.7883 42.2206 7.59138 42.139C7.39445 42.0575 7.22614 41.9193 7.10772 41.7421C6.9893 41.5649 6.9261 41.3565 6.9261 41.1434C6.9261 40.8576 7.03964 40.5834 7.24175 40.3813C7.44386 40.1792 7.71797 40.0657 8.0038 40.0657V40.0657ZM16.7077 40.1911H18.5653V45.4699L20.6737 43.0323H22.9506L20.513 45.803L22.8996 49.0243H20.5639L18.5888 46.0655H18.5653V49.0243H16.7077V40.1911V40.1911ZM9.96326 43.0401H11.7346V43.8592H11.7581C11.9368 43.5541 12.1947 43.3031 12.5045 43.1326C12.8143 42.9622 13.1644 42.8788 13.5177 42.8912C15.4027 42.8912 15.7476 44.1296 15.7476 45.7403V49.0243H13.9057V46.1126C13.9057 45.4189 13.9057 44.545 12.9377 44.545C11.9697 44.545 11.8208 45.3014 11.8208 46.0812V49.04H9.96326V43.0401Z" fill="#1D1D1B"/>
<path d="M26.8655 45.3329C26.8693 45.1821 26.8424 45.0321 26.7864 44.8921C26.7304 44.752 26.6465 44.6248 26.5399 44.5181C26.4332 44.4115 26.306 44.3276 26.1659 44.2716C26.0259 44.2157 25.8759 44.1887 25.7251 44.1925C25.4003 44.172 25.0805 44.2801 24.8349 44.4935C24.5892 44.7069 24.4374 45.0085 24.4123 45.3329H26.8655ZM28.4331 47.986C28.1231 48.3576 27.7345 48.6557 27.2954 48.859C26.8563 49.0623 26.3775 49.1657 25.8936 49.1617C24.0361 49.1617 22.5469 47.9233 22.5469 45.9991C22.5469 44.0749 24.0361 42.8405 25.8936 42.8405C27.6297 42.8405 28.7192 44.0789 28.7192 45.9991V46.583H24.4084C24.4596 46.9152 24.6296 47.2175 24.887 47.4338C25.1443 47.65 25.4714 47.7655 25.8074 47.7587C26.0721 47.7583 26.3324 47.6909 26.564 47.5628C26.7957 47.4346 26.9911 47.2499 27.132 47.0259L28.4331 47.986ZM32.595 44.4825C32.2916 44.4731 31.9924 44.5545 31.7356 44.7162C31.4788 44.878 31.2761 45.1126 31.1535 45.3903C31.0309 45.6679 30.9939 45.9757 31.0473 46.2745C31.1007 46.5732 31.242 46.8492 31.4532 47.0672C31.6645 47.2851 31.9359 47.435 32.2328 47.4978C32.5298 47.5605 32.8386 47.5332 33.12 47.4193C33.4013 47.3054 33.6422 47.1102 33.8119 46.8586C33.9816 46.607 34.0723 46.3104 34.0724 46.007C34.089 45.8056 34.0622 45.603 33.9938 45.4129C33.9253 45.2227 33.8168 45.0496 33.6756 44.905C33.5344 44.7605 33.3638 44.6479 33.1753 44.575C32.9869 44.5021 32.7849 44.4706 32.5832 44.4825H32.595ZM35.7967 49.0206H34.0724V48.2368C33.857 48.5241 33.5786 48.7583 33.2587 48.9213C32.9387 49.0844 32.5857 49.172 32.2266 49.1774C30.4396 49.1774 29.2639 47.888 29.2639 46.0657C29.2639 44.3924 30.3063 42.8561 32.0071 42.8561C32.3648 42.8247 32.7247 42.8795 33.0567 43.0159C33.3888 43.1522 33.6834 43.3662 33.9157 43.6399H33.9392V40.1913H35.7967V49.0206Z" fill="#1D1D1B"/>
<path d="M49.27 38.3376H38.5831C38.3406 38.3355 38.1071 38.4296 37.9337 38.5993C37.7604 38.7689 37.6613 39.0003 37.6582 39.2429V49.9729C37.6613 50.2154 37.7604 50.4468 37.9337 50.6165C38.1071 50.7862 38.3406 50.8802 38.5831 50.8781H49.27C49.3904 50.8797 49.51 50.8575 49.6218 50.8129C49.7337 50.7682 49.8357 50.7019 49.9219 50.6179C50.0082 50.5338 50.077 50.4336 50.1245 50.3229C50.172 50.2122 50.1973 50.0933 50.1988 49.9729V39.2429C50.1973 39.1224 50.172 39.0035 50.1245 38.8928C50.077 38.7822 50.0082 38.6819 49.9219 38.5979C49.8357 38.5138 49.7337 38.4475 49.6218 38.4029C49.51 38.3582 49.3904 38.336 49.27 38.3376V38.3376Z" fill="#0076B2"/>
<path d="M39.5159 43.0401H41.3773V49.0243H39.5159V43.0401ZM40.4446 40.0657C40.6578 40.0657 40.8662 40.1289 41.0434 40.2473C41.2206 40.3657 41.3587 40.534 41.4403 40.731C41.5219 40.9279 41.5432 41.1446 41.5016 41.3536C41.4601 41.5627 41.3574 41.7547 41.2067 41.9054C41.056 42.0561 40.8639 42.1588 40.6549 42.2004C40.4458 42.242 40.2291 42.2206 40.0322 42.139C39.8353 42.0575 39.667 41.9193 39.5486 41.7421C39.4301 41.5649 39.3669 41.3565 39.3669 41.1434C39.3669 40.8576 39.4805 40.5834 39.6826 40.3813C39.8847 40.1792 40.1588 40.0657 40.4446 40.0657V40.0657ZM42.5413 43.0401H44.3244V43.8592H44.3479C44.5266 43.5541 44.7845 43.3031 45.0942 43.1326C45.404 42.9622 45.7541 42.8788 46.1075 42.8912C47.9925 42.8912 48.3373 44.1296 48.3373 45.7403V49.0243H46.4798V46.1126C46.4798 45.4189 46.4798 44.545 45.5118 44.545C44.5438 44.545 44.3949 45.3014 44.3949 46.0812V49.04H42.5373L42.5413 43.0401Z" fill="white"/>
<path d="M40.473 0.716152H11.084C10.417 0.710397 9.77492 0.969121 9.29825 1.4357C8.82157 1.90227 8.54916 2.53869 8.54063 3.20565V32.7131C8.54916 33.3801 8.82157 34.0165 9.29825 34.4831C9.77492 34.9497 10.417 35.2084 11.084 35.2026H40.473C40.8041 35.2069 41.1329 35.1459 41.4405 35.0231C41.7481 34.9003 42.0285 34.7181 42.2657 34.4869C42.5029 34.2558 42.6922 33.9801 42.8228 33.6758C42.9535 33.3714 43.0229 33.0443 43.0271 32.7131V3.20565C43.0229 2.87447 42.9535 2.54736 42.8228 2.24301C42.6922 1.93866 42.5029 1.66303 42.2657 1.43186C42.0285 1.20068 41.7481 1.01849 41.4405 0.895684C41.1329 0.772883 40.8041 0.711879 40.473 0.716152V0.716152Z" fill="#0076B2"/>
<path d="M13.649 13.6488H18.7681V30.1053H13.649V13.6488ZM16.2032 5.46899C16.7893 5.46899 17.3623 5.64281 17.8497 5.96847C18.3371 6.29412 18.7169 6.75698 18.9412 7.29852C19.1656 7.84007 19.2242 8.43597 19.1099 9.01086C18.9955 9.58576 18.7133 10.1138 18.2988 10.5283C17.8843 10.9428 17.3562 11.2251 16.7813 11.3394C16.2064 11.4538 15.6105 11.3951 15.069 11.1708C14.5275 10.9464 14.0646 10.5666 13.7389 10.0792C13.4133 9.59183 13.2395 9.01884 13.2395 8.43268C13.2395 7.64666 13.5517 6.89284 14.1075 6.33704C14.6633 5.78124 15.4171 5.46899 16.2032 5.46899V5.46899ZM21.9689 13.6488H26.8724V15.9012H26.9371C27.4285 15.0622 28.1377 14.3718 28.9896 13.9031C29.8415 13.4345 30.8043 13.2051 31.776 13.2392C36.9597 13.2392 37.9081 16.6448 37.9081 21.0741V30.1053H32.7998V22.0979C32.7998 20.1904 32.7998 17.7871 30.1379 17.7871C27.4759 17.7871 27.0664 19.8671 27.0664 22.0117V30.1484H21.9581L21.9689 13.6488Z" fill="white"/>
</svg>
